# xmcd
#
# Track frame offsets:
#	150
#	19547
#	33490
#	46170
#	63620
#	81750
#	97100
#	112272
#	133365
#	152807
#	169567
#	188052
#	204907
#	223165
#	245370
#
# Disc length: 3502 seconds
#
# Revision: 1
# Processed by: cddbd v1.5.1PL2 Copyright (c) Steve Scherf et al.
# Submitted via: audiograbber 1.83.01
#
DISCID=d30dac0f
DTITLE=Music Maestro - MM6291
DYEAR=1900
DGENRE=Karaoke
TTITLE0=Wills, Mark - Back At One
TTITLE1=Lawrence, Tracy - Lessons Learned
TTITLE2=Austin, Sherrie - Little Bird
TTITLE3=Rogers, Kenny - Buy Me A Rose
TTITLE4=Vassar, Phil - Carline
TTITLE5=Keith, Toby - How Do You Like Me Now
TTITLE6=Judd, Wynonna - Can't Nobody Love You Like I Do
TTITLE7=McBride, Martina - Love's The Only House
TTITLE8=Hill, Faith and Tim McGraw - Let's Make Love
TTITLE9=Harling, Keith - Bring It On
TTITLE10=Brock, Chad and Hank Williams Jr. and George Jones - Country Boy Can Survi
TTITLE10=ve, A (Y2K Version)
TTITLE11=Montgomery Gentry - Daddy Won't Sell The Farm
TTITLE12=McEntire, Reba - Secret Of Giving, The
TTITLE13=Brooks and Dunn - Against The Wind
TTITLE14=Kershaw, Sammy - Me And Maxine
EXTD=As Listed In KJ Pro
EXTT0=
EXTT1=
EXTT2=
EXTT3=
EXTT4=
EXTT5=
EXTT6=
EXTT7=
EXTT8=
EXTT9=
EXTT10=
EXTT11=
EXTT12=
EXTT13=
EXTT14=
PLAYORDER=
